<?xml version="1.0" encoding="UTF-8" standalone="no"?>
<svg
   data-name="Layer 1"
   width="824.85791"
   height="466.00415"
   viewBox="0 0 824.85792 466.00416"
   version="1.1"
   id="svg134"
   sodipodi:docname="hero.svg"
   inkscape:version="1.1.2 (0a00cf5339, 2022-02-04)"
   xmlns:inkscape="http://www.inkscape.org/namespaces/inkscape"
   xmlns:sodipodi="http://sodipodi.sourceforge.net/DTD/sodipodi-0.dtd"
   xmlns="http://www.w3.org/2000/svg"
   xmlns:svg="http://www.w3.org/2000/svg">
  <defs
     id="defs138" />
  <sodipodi:namedview
     id="namedview136"
     pagecolor="#ffffff"
     bordercolor="#666666"
     borderopacity="1.0"
     inkscape:pageshadow="2"
     inkscape:pageopacity="0.0"
     inkscape:pagecheckerboard="0"
     showgrid="false"
     fit-margin-top="0"
     fit-margin-left="0"
     fit-margin-right="0"
     fit-margin-bottom="0"
     inkscape:zoom="1.0394927"
     inkscape:cx="308.80448"
     inkscape:cy="176.04741"
     inkscape:window-width="1920"
     inkscape:window-height="1009"
     inkscape:window-x="0"
     inkscape:window-y="0"
     inkscape:window-maximized="1"
     inkscape:current-layer="svg134" />
  <circle
     cx="246.14815"
     cy="186.83946"
     r="169"
     fill="#f2f2f2"
     id="circle8"
     style="fill:#f2f2f2;fill-opacity:0.12488768" />
  <circle
     cx="655.85791"
     cy="297.00415"
     r="169"
     fill="#f2f2f2"
     id="circle8-5"
     style="fill:#f2f2f2;fill-opacity:0.1254902" />
  <circle
     cx="442.14816"
     cy="318.83945"
     r="32"
     fill="#f2f2f2"
     id="circle10"
     style="fill:#f2f2f2;fill-opacity:0.19995646" />
  <path
     d="m 381.24728,404.84376 c -80.77392,0.004 -151.05273,-60.252 -161.43506,-142.4375 l 1.98438,-0.251 c 10.2539,81.1709 79.67676,140.6836 159.45215,140.68848 a 161.36039,161.36039 0 0 0 20.27343,-1.2793 C 489.50802,390.44921 552.0466,309.82518 540.93136,221.83935 l 1.98438,-0.251 c 11.25342,89.07959 -52.063,170.70752 -141.14258,181.96045 a 163.74439,163.74439 0 0 1 -20.52588,1.29496 z"
     fill="#3f3d56"
     id="path58"
     style="fill:#b1afc6;fill-opacity:1" />
  <path
     d="m 385.58467,438.29209 h -31.80371 a 4.50049,4.50049 0 0 1 -3.53466,-1.70263 4.40807,4.40807 0 0 1 -0.8628,-3.74561 86.51558,86.51558 0 0 0 -0.52,-40.40088 4.47676,4.47676 0 0 1 1.95117,-4.87353 c 11.00245,-6.81592 22.98291,-6.603 36.62793,0.65185 a 4.55074,4.55074 0 0 1 2.36817,3.27491 141.562,141.562 0 0 1 0.23437,42.92431 4.49087,4.49087 0 0 1 -4.46047,3.87158 z"
     fill="#6c63ff"
     id="path60"
     style="fill:#3d858f;fill-opacity:1" />
  <path
     d="m 240.58467,268.29209 h -31.80371 a 4.50049,4.50049 0 0 1 -3.53466,-1.70263 4.40807,4.40807 0 0 1 -0.8628,-3.74561 86.49,86.49 0 0 0 -0.55517,-40.53613 4.509,4.509 0 0 1 1.74951,-4.73828 c 16.35351,-11.76172 29.23242,-11.42041 38.27929,1.01611 a 4.51917,4.51917 0 0 1 0.79151,1.90967 141.54,141.54 0 0 1 0.39648,43.92529 4.49087,4.49087 0 0 1 -4.46045,3.87158 z"
     fill="#cccccc"
     id="path62" />
  <path
     d="m 370.72471,408.44328 h -10.94052 a 2.28111,2.28111 0 0 1 0,-4.56221 h 10.94052 a 2.281105,2.281105 0 0 1 0,4.56221 z"
     fill="#ffffff"
     id="path64" />
  <path
     d="m 384.10172,417.45658 h -24.31753 a 2.28111,2.28111 0 0 1 0,-4.56221 h 24.31753 a 2.28111,2.28111 0 0 1 0,4.56221 z"
     fill="#ffffff"
     id="path66" />
  <path
     d="m 689.58907,416.93371 h -31.80371 a 4.50049,4.50049 0 0 1 -3.53466,-1.70263 4.40807,4.40807 0 0 1 -0.8628,-3.74561 86.51558,86.51558 0 0 0 -0.52,-40.40088 4.47676,4.47676 0 0 1 1.95117,-4.87353 c 11.00245,-6.81592 22.98291,-6.603 36.62793,0.65185 a 4.55074,4.55074 0 0 1 2.36817,3.27491 141.562,141.562 0 0 1 0.23437,42.92431 4.49087,4.49087 0 0 1 -4.46047,3.87158 z"
     fill="#6c63ff"
     id="path60-8"
     style="fill:#a0c4ce;fill-opacity:1" />
  <path
     d="m 674.72911,387.0849 h -10.94052 a 2.28111,2.28111 0 0 1 0,-4.56221 h 10.94052 a 2.281105,2.281105 0 0 1 0,4.56221 z"
     fill="#ffffff"
     id="path64-9" />
  <path
     d="m 688.10612,396.0982 h -24.31753 a 2.28111,2.28111 0 0 1 0,-4.56221 h 24.31753 a 2.28111,2.28111 0 0 1 0,4.56221 z"
     fill="#ffffff"
     id="path66-3" />
  <path
     d="m 230.72471,236.44328 h -10.94052 a 2.28111,2.28111 0 0 1 0,-4.56221 h 10.94052 a 2.28111,2.28111 0 0 1 0,4.56221 z"
     fill="#ffffff"
     id="path68" />
  <path
     d="m 230.72471,244.44328 h -10.94052 a 2.28111,2.28111 0 0 1 0,-4.56221 h 10.94052 a 2.28111,2.28111 0 0 1 0,4.56221 z"
     fill="#ffffff"
     id="path70" />
  <path
     d="m 230.72471,252.44328 h -10.94052 a 2.28111,2.28111 0 0 1 0,-4.56221 h 10.94052 a 2.28111,2.28111 0 0 1 0,4.56221 z"
     fill="#ffffff"
     id="path72" />
  <path
     d="M 668.62632,305.86524 H 566.96126 a 10.28839,10.28839 0 0 1 -10.27672,-10.27677 v -62.61613 a 10.2884,10.2884 0 0 1 10.27672,-10.27676 h 101.66506 a 10.28841,10.28841 0 0 1 10.27678,10.27678 v 62.61613 a 10.28841,10.28841 0 0 1 -10.27678,10.27675 z"
     fill="#e6e6e6"
     id="path74" />
  <path
     d="m 628.23318,297.79985 h -54.12549 a 9.63563,9.63563 0 0 1 -9.625,-9.62451 v -47.79 a 9.63563,9.63563 0 0 1 9.625,-9.62451 h 87.37256 a 9.63521,9.63521 0 0 1 9.62451,9.62451 v 14.54346 a 42.9198,42.9198 0 0 1 -42.87158,42.87105 z"
     fill="#ffffff"
     id="path76" />
  <path
     d="m 652.76405,256.92958 h -69.94052 a 2.281,2.281 0 1 1 0,-4.562 h 69.94052 a 2.281,2.281 0 1 1 0,4.562 z"
     fill="#6c63ff"
     id="path78"
     style="fill:#a0c4ce;fill-opacity:1" />
  <path
     d="m 593.76405,265.94288 h -10.94052 a 2.28111,2.28111 0 0 1 0,-4.56221 h 10.94052 a 2.28111,2.28111 0 0 1 0,4.56221 z"
     fill="#6c63ff"
     id="path80"
     style="fill:#a0c4ce;fill-opacity:1" />
  <path
     d="m 613.14106,274.95621 h -30.31753 a 2.2811,2.2811 0 0 1 0,-4.5622 h 30.31753 a 2.2811,2.2811 0 1 1 0,4.5622 z"
     fill="#6c63ff"
     id="path82"
     style="fill:#a0c4ce;fill-opacity:1" />
  <circle
     cx="553.13672"
     cy="221.44849"
     r="21.50617"
     fill="#3f3d56"
     id="circle84"
     style="fill:#b1afc6;fill-opacity:1" />
  <path
     d="m 309.68663,57.84964 a 56.086027,56.086027 0 1 1 110.05652,21.68253 l -1.96288,-0.38651 A 54.08546,54.08546 0 1 0 311.6495,58.23615 Z"
     fill="#3f3d56"
     id="path86"
     style="fill:#d4d3e0;fill-opacity:1" />
  <path
     d="m 761.912,311.62772 a 56.086027,56.086027 0 1 1 -73.80588,84.47048 l 1.31617,-1.50665 a 54.08546,54.08546 0 1 0 71.17355,-81.45719 z"
     fill="#3f3d56"
     id="path86-6"
     style="fill:#b8b7cc;fill-opacity:1" />
  <path
     d="m 330.98437,93.23397 -31.77648,1.31613 a 4.50052,4.50052 0 0 1 -3.6021,-1.55491 4.408,4.408 0 0 1 -1.01706,-3.70669 86.53527,86.53527 0 0 0 -2.075,-39.95275 4.47106,4.47106 0 0 1 2.20795,-5.22671 c 13.0155,-6.76218 25.211,-7.10505 36.24566,-1.02035 a 4.52655,4.52655 0 0 1 2.27165,3.06 141.5524,141.5524 0 0 1 2.04182,43.03244 4.49087,4.49087 0 0 1 -4.29644,4.05284 z"
     fill="#6c63ff"
     id="path88"
     style="fill:#a0c4ce;fill-opacity:1" />
  <path
     d="m 329.6396,72.43633 -24.29671,1.00632 a 2.2811,2.2811 0 1 1 -0.1888,-4.55829 l 24.2967,-1.00633 a 2.2811039,2.2811039 0 0 1 0.18879,4.5583 z"
     fill="#ffffff"
     id="path90" />
  <path
     d="m 329.30854,64.44318 -24.2967,1.00633 a 2.2811039,2.2811039 0 0 1 -0.18879,-4.5583 l 24.2967,-1.00633 a 2.2811039,2.2811039 0 0 1 0.18879,4.5583 z"
     fill="#ffffff"
     id="path92" />
  <path
     d="M 538.94178,83.16968 H 437.27672 A 10.28839,10.28839 0 0 1 427,72.8929 V 10.27678 A 10.28839,10.28839 0 0 1 437.27672,0 h 101.66506 a 10.28841,10.28841 0 0 1 10.27678,10.27678 v 62.61613 a 10.28841,10.28841 0 0 1 -10.27678,10.27677 z"
     fill="#e6e6e6"
     id="path94" />
  <path
     d="m 498.54864,75.10429 h -54.12549 a 9.63563,9.63563 0 0 1 -9.625,-9.62451 v -47.79 a 9.63563,9.63563 0 0 1 9.625,-9.62451 h 87.37256 a 9.63521,9.63521 0 0 1 9.62451,9.62451 v 14.54346 a 42.91981,42.91981 0 0 1 -42.87158,42.87105 z"
     fill="#ffffff"
     id="path96" />
  <path
     d="m 523.07951,34.23398 h -69.94052 a 2.281,2.281 0 1 1 0,-4.562 h 69.94052 a 2.281,2.281 0 1 1 0,4.562 z"
     fill="#6c63ff"
     id="path98"
     style="fill:#a0c4ce;fill-opacity:1" />
  <path
     d="m 483.45652,52.26065 h -30.31753 a 2.281105,2.281105 0 0 1 0,-4.56221 h 30.31753 a 2.28111,2.28111 0 0 1 0,4.56221 z"
     fill="#6c63ff"
     id="path102"
     style="fill:#a0c4ce;fill-opacity:1" />
  <circle
     cx="151.96442"
     cy="401.03183"
     r="21.506161"
     transform="rotate(-58.13426)"
     fill="#3f3d56"
     id="circle104"
     style="fill:#d4d3e0;fill-opacity:1" />
  <path
     d="m 134.32834,250.4297 a 94.031125,94.031125 0 0 1 175.89795,-66.53812 l -1.8711,0.708 a 92.030552,92.030552 0 1 0 -172.15576,65.12207 z"
     fill="#3f3d56"
     id="path108"
     style="fill:#c7c5d6;fill-opacity:1" />
  <path
     d="m 216.58467,157.29209 h -31.80371 a 4.50049,4.50049 0 0 1 -3.53466,-1.70263 4.40807,4.40807 0 0 1 -0.8628,-3.74561 86.51423,86.51423 0 0 0 -0.49707,-40.30908 4.4618,4.4618 0 0 1 2.05762,-4.9375 c 11.52051,-6.70605 23.82324,-6.50147 36.56543,0.60986 a 4.5125,4.5125 0 0 1 2.293,3.23438 141.56107,141.56107 0 0 1 0.24267,42.979 4.49087,4.49087 0 0 1 -4.46048,3.87158 z"
     fill="#6c63ff"
     id="path110"
     style="fill:#3d858f;fill-opacity:1" />
  <path
     d="m 201.72471,126.44328 h -10.94052 a 2.28111,2.28111 0 0 1 0,-4.56221 h 10.94052 a 2.28111,2.28111 0 0 1 0,4.56221 z"
     fill="#ffffff"
     id="path112" />
  <path
     d="m 215.10172,135.45658 h -24.31753 a 2.281105,2.281105 0 0 1 0,-4.56221 h 24.31753 a 2.28111,2.28111 0 0 1 0,4.56221 z"
     fill="#ffffff"
     id="path114" />
  <path
     d="M 111.94178,249.16968 H 10.27672 A 10.28839,10.28839 0 0 1 0,238.8929 V 176.27678 A 10.28839,10.28839 0 0 1 10.27672,166 h 101.66506 a 10.28841,10.28841 0 0 1 10.27678,10.27678 v 62.61613 a 10.28841,10.28841 0 0 1 -10.27678,10.27677 z"
     fill="#e6e6e6"
     id="path116" />
  <path
     d="M 71.54864,241.10429 H 17.42315 a 9.63563,9.63563 0 0 1 -9.625,-9.62451 v -47.79 a 9.63563,9.63563 0 0 1 9.625,-9.62451 h 87.37256 a 9.63521,9.63521 0 0 1 9.62451,9.62451 v 14.54346 a 42.91981,42.91981 0 0 1 -42.87158,42.87105 z"
     fill="#ffffff"
     id="path118" />
  <path
     d="M 96.07951,200.23398 H 26.13899 a 2.281,2.281 0 1 1 0,-4.562 h 69.94052 a 2.281,2.281 0 1 1 0,4.562 z"
     fill="#6c63ff"
     id="path120"
     style="fill:#a0c4ce;fill-opacity:1" />
  <path
     d="M 56.45652,218.26065 H 26.13899 a 2.28111,2.28111 0 0 1 0,-4.56221 h 30.31753 a 2.281105,2.281105 0 0 1 0,4.56221 z"
     fill="#6c63ff"
     id="path124"
     style="fill:#a0c4ce;fill-opacity:1" />
  <circle
     cx="-138.83485"
     cy="243.86694"
     r="21.506161"
     transform="rotate(-58.13426)"
     fill="#3f3d56"
     id="circle126"
     style="fill:#c7c5d6;fill-opacity:1" />
  <path
     d="m 325.58467,217.29209 h -31.80371 a 4.50049,4.50049 0 0 1 -3.53466,-1.70263 4.40807,4.40807 0 0 1 -0.8628,-3.74561 86.52041,86.52041 0 0 0 -0.47949,-40.24023 4.4894,4.4894 0 0 1 2.124,-4.978 c 15.44971,-8.84375 27.68311,-8.59961 37.39991,0.74658 a 4.4406,4.4406 0 0 1 1.2788,2.47608 141.55617,141.55617 0 0 1 0.33838,43.57226 4.49087,4.49087 0 0 1 -4.46043,3.87155 z"
     fill="#ff6584"
     id="path128" />
  <path
     d="m 312.72471,187.44328 h -10.94052 a 2.28111,2.28111 0 0 1 0,-4.56221 h 10.94052 a 2.28111,2.28111 0 0 1 0,4.56221 z"
     fill="#ffffff"
     id="path130" />
  <path
     d="m 326.10172,196.45658 h -24.31753 a 2.281105,2.281105 0 0 1 0,-4.56221 h 24.31753 a 2.28111,2.28111 0 0 1 0,4.56221 z"
     fill="#ffffff"
     id="path132" />
  <path
     d="m 761.912,311.62772 h -31.80371 a 4.50049,4.50049 0 0 1 -3.53466,-1.70263 4.40807,4.40807 0 0 1 -0.8628,-3.74561 86.52041,86.52041 0 0 0 -0.47949,-40.24023 4.4894,4.4894 0 0 1 2.124,-4.978 c 15.44971,-8.84375 27.68311,-8.59961 37.39991,0.74658 a 4.4406,4.4406 0 0 1 1.2788,2.47608 141.55617,141.55617 0 0 1 0.33838,43.57226 4.49087,4.49087 0 0 1 -4.46043,3.87155 z"
     fill="#ff6584"
     id="path128-8" />
  <path
     d="m 749.05204,281.77891 h -10.94052 a 2.28111,2.28111 0 0 1 0,-4.56221 h 10.94052 a 2.28111,2.28111 0 0 1 0,4.56221 z"
     fill="#ffffff"
     id="path130-1" />
  <path
     d="m 762.42905,290.79221 h -24.31753 a 2.281105,2.281105 0 0 1 0,-4.56221 h 24.31753 a 2.28111,2.28111 0 0 1 0,4.56221 z"
     fill="#ffffff"
     id="path132-2" />
</svg>
